<?xml version="1.0" encoding="utf-8"?>
<!-- Generator: Adobe Illustrator 24.3.0, SVG Export Plug-In . SVG Version: 6.00 Build 0)  -->
<svg version="1.0" id="katman_1" xmlns="http://www.w3.org/2000/svg" xmlns:xlink="http://www.w3.org/1999/xlink" x="0px" y="0px"
	 viewBox="0 0 841.89 595.28" style="enable-background:new 0 0 841.89 595.28;" xml:space="preserve">
<style type="text/css">
	.st0{fill:#7AB1DB;}
	.st1{fill:#958436;}
	.st2{fill:#739833;}
	.st3{fill:#C9D203;}
	.st4{fill:#FAB412;}
</style>
<g id="nxp-logo">
	<polyline class="st0" points="486.34,179.32 473.11,179.32 424.34,257.8 375.54,179.32 362.28,179.32 362.31,415.39 375.54,415.39 
		424.34,336.94 473.11,415.39 486.47,415.39 486.34,415.2 486.34,179.32 	"/>
	<polyline class="st1" points="362.28,179.32 289.96,179.32 362.21,297.37 289.96,415.39 362.31,415.39 362.28,179.32 	"/>
	<polyline class="st2" points="558.72,179.32 486.34,179.32 486.34,415.2 486.47,415.39 558.68,415.39 486.47,297.37 558.72,179.32 
			"/>
	<path class="st3" d="M661.8,179.32H558.68l-72.25,118.22l72.25,118.02l0,0v-52.35h122.06c51.23,0,66.56-40.36,66.56-75.53V260
		c0-46.2-16.65-80.68-85.38-80.68H661.8z M679.73,274.55c0,13.99-6.57,30.08-23.51,30.08h-97.43V237.9h91.39
		c21.87,0,29.55,9.1,29.55,25.06V274.55z"/>
	<polyline class="st4" points="362.21,297.37 289.96,179.32 289.93,179.32 289.93,321.97 167.54,179.32 95.2,179.32 95.2,415.39 
		167.61,415.39 167.57,272.74 289.96,415.39 362.21,297.37 	"/>
</g>
</svg>
